<?xml version="1.0" standalone="no"?>
<!DOCTYPE svg PUBLIC "-//W3C//DTD SVG 20010904//EN"
 "http://www.w3.org/TR/2001/REC-SVG-20010904/DTD/svg10.dtd">
<svg version="1.0" xmlns="http://www.w3.org/2000/svg"
 width="1080.000000pt" height="2160.000000pt" viewBox="0 0 1080.000000 2160.000000"
 preserveAspectRatio="xMidYMid meet">
<metadata>
Created by potrace 1.16, written by Peter Selinger 2001-2019
</metadata>
<g transform="translate(0.000000,2160.000000) scale(0.100000,-0.100000)"
fill="#000000" stroke="none">
<path d="M0 21270 l0 -330 5400 0 5400 0 0 330 0 330 -5400 0 -5400 0 0 -330z
m1543 164 c45 -23 66 -44 88 -86 40 -78 11 -186 -63 -235 -125 -83 -288 3
-288 151 0 78 39 143 105 172 41 18 120 17 158 -2z m8162 -17 c17 -9 43 -26
58 -39 l28 -23 -101 -122 c-56 -68 -103 -123 -105 -123 -3 0 -165 194 -197
236 -10 14 49 62 101 81 47 18 176 12 216 -10z m463 -144 l-3 -168 -167 -3
c-93 -1 -168 1 -168 5 0 10 323 333 333 333 4 0 6 -75 5 -167z m352 153 c0 -9
12 -16 28 -18 l27 -3 3 -149 c2 -113 -1 -151 -10 -158 -7 -4 -49 -8 -93 -8
-44 0 -86 4 -93 8 -9 7 -12 45 -10 158 l3 149 28 3 c15 2 27 9 27 18 0 10 13
14 45 14 32 0 45 -4 45 -14z m-10130 -117 c0 -82 2 -91 20 -96 11 -3 20 -12
20 -19 0 -8 -9 -14 -20 -14 -16 0 -20 -7 -20 -30 0 -20 -5 -30 -15 -30 -10 0
-15 10 -15 30 l0 30 -66 0 c-62 0 -66 1 -61 21 11 40 122 199 140 199 15 0 17
-11 17 -91z m310 0 c0 -82 2 -91 20 -96 11 -3 20 -12 20 -19 0 -8 -9 -14 -20
-14 -16 0 -20 -7 -20 -30 0 -20 -5 -30 -15 -30 -10 0 -15 10 -15 30 l0 30 -66
0 c-62 0 -66 1 -61 21 11 40 122 199 140 199 15 0 17 -11 17 -91z m250 76 c0
-8 -24 -70 -54 -137 -42 -94 -59 -124 -75 -126 -24 -4 -25 -9 53 161 20 43 36
80 36 83 0 2 -34 4 -75 4 -69 0 -86 6 -68 23 3 4 46 7 95 7 71 0 88 -3 88 -15z
m-442 -78 c2 -12 -3 -17 -17 -17 -15 0 -21 6 -21 21 0 25 33 22 38 -4z m0
-170 c2 -12 -3 -17 -17 -17 -15 0 -21 6 -21 21 0 25 33 22 38 -4z"/>
<path d="M1387 21382 c-26 -5 -37 -43 -37 -120 0 -81 18 -115 58 -110 36 4 52
39 52 116 0 87 -25 125 -73 114z"/>
<path d="M1503 21380 c-39 -16 -40 -70 -1 -91 29 -16 70 14 66 48 -4 33 -36
54 -65 43z"/>
<path d="M10092 21317 c-30 -31 -32 -38 -32 -105 l0 -72 35 0 35 0 0 105 c0
58 -1 105 -3 105 -2 0 -17 -15 -35 -33z"/>
<path d="M318 21285 c-21 -33 -38 -63 -38 -67 0 -14 70 -9 76 6 3 7 4 38 2 67
l-3 54 -37 -60z"/>
<path d="M628 21285 c-21 -33 -38 -63 -38 -67 0 -14 70 -9 76 6 3 7 4 38 2 67
l-3 54 -37 -60z"/>
<path d="M955 20651 c-16 -5 -42 -12 -56 -15 -16 -3 -29 -15 -32 -27 -4 -15
-11 -19 -26 -14 -34 10 -131 -73 -181 -155 -76 -125 -98 -262 -64 -393 15 -60
68 -172 85 -183 5 -3 9 19 9 48 0 29 3 97 7 151 l6 97 34 0 c24 0 33 -5 34
-17 4 -46 -2 -84 -25 -148 -30 -81 -35 -175 -11 -195 13 -11 15 -7 15 27 0 64
18 142 46 202 l26 56 31 -65 c29 -60 32 -75 35 -192 3 -100 7 -128 18 -128 11
0 14 20 14 88 0 197 25 313 95 438 49 88 57 92 87 46 92 -138 118 -233 118
-424 0 -118 3 -148 13 -148 11 0 16 27 20 108 6 105 18 158 52 237 16 37 18
38 31 20 26 -35 54 -125 60 -195 6 -60 9 -68 22 -58 22 18 10 129 -23 210 -15
39 -25 80 -23 100 3 30 6 33 38 33 l35 0 5 -155 5 -155 33 55 c103 174 100
381 -6 546 -47 72 -152 159 -181 149 -14 -4 -21 0 -26 14 -4 12 -21 25 -43 32
-47 14 -237 21 -277 10z m355 -188 c6 -49 14 -100 16 -115 5 -26 4 -28 -31
-28 -35 0 -36 2 -31 28 3 15 8 59 11 97 7 69 13 105 20 105 1 0 8 -39 15 -87z
m-442 -5 c19 -131 18 -138 -19 -138 l-32 0 6 48 c4 26 9 75 13 110 4 34 10 62
14 62 4 0 12 -37 18 -82z m-119 15 c-15 -18 -34 -1 -25 22 5 14 9 15 21 5 12
-10 13 -16 4 -27z m679 14 c2 -12 -3 -17 -17 -17 -12 0 -21 6 -21 13 0 31 32
34 38 4z m-345 -88 c4 -27 2 -36 -10 -36 -10 0 -13 7 -9 21 3 12 6 30 6 40 0
28 6 16 13 -25z m-333 -55 c5 -43 12 -96 15 -116 5 -38 5 -38 -31 -38 -36 0
-36 0 -30 38 3 20 11 74 17 120 6 46 13 81 15 79 2 -2 8 -39 14 -83z m673 19
c4 -27 9 -76 13 -110 l7 -63 -32 0 c-27 0 -31 3 -31 28 0 47 23 192 30 192 4
0 10 -21 13 -47z m-533 -205 l-1 -123 -32 63 c-18 35 -36 60 -40 56 -4 -4 -7
23 -7 59 l0 67 40 0 40 0 0 -122z m440 68 c0 -43 -8 -72 -40 -137 l-40 -83 0
121 c0 67 3 128 6 137 4 10 18 16 40 16 l34 0 0 -54z"/>
<path d="M1027 20191 c-41 -76 -77 -201 -77 -268 l0 -43 126 0 127 0 -7 60
c-4 32 -14 85 -22 116 -16 61 -82 196 -99 201 -6 2 -27 -28 -48 -66z m69 -23
c31 -59 64 -171 64 -215 l0 -43 -90 0 c-103 0 -99 -6 -75 100 21 87 64 190 81
190 2 0 11 -14 20 -32z"/>
<path d="M804 19985 c-11 -25 -19 -74 -22 -131 -4 -77 -2 -92 12 -97 14 -6 16
4 16 66 0 40 5 79 10 87 7 10 10 -15 10 -81 0 -94 5 -109 36 -109 8 0 4 138
-6 188 -5 27 -16 65 -23 83 l-15 34 -18 -40z"/>
<path d="M1305 19977 c-23 -57 -35 -262 -14 -255 9 3 15 22 16 54 2 27 6 74 9
104 6 45 8 51 15 30 4 -14 7 -56 8 -94 1 -60 3 -67 16 -56 29 24 9 234 -24
255 -5 2 -17 -14 -26 -38z"/>
<path d="M992 19850 c-30 -12 -44 -52 -40 -114 l3 -51 52 -9 c28 -5 81 -5 117
-1 l66 7 0 68 c0 63 -2 70 -27 90 -18 14 -34 19 -48 14 -27 -9 -56 -9 -80 -2
-11 4 -30 2 -43 -2z m58 -49 c5 -11 10 -36 10 -55 0 -34 -2 -36 -35 -36 l-35
0 0 48 c0 27 3 52 7 55 13 14 43 7 53 -12z m104 3 c3 -9 6 -33 6 -55 0 -38 -1
-39 -35 -39 -34 0 -35 1 -35 39 0 54 8 71 35 71 13 0 26 -7 29 -16z"/>
<path d="M7564 18900 c-36 -14 -64 -59 -64 -101 0 -35 -3 -39 -25 -39 -21 0
-25 -5 -25 -30 0 -25 4 -30 25 -30 l25 0 0 -130 0 -130 40 0 40 0 0 130 0 130
30 0 c27 0 30 3 30 30 0 27 -3 30 -30 30 -26 0 -30 4 -30 28 0 34 16 52 46 52
26 0 44 48 22 61 -16 11 -57 10 -84 -1z"/>
<path d="M3800 18670 l0 -230 40 0 40 0 0 230 0 230 -40 0 -40 0 0 -230z"/>
<path d="M6460 18670 l0 -230 40 0 40 0 0 230 0 230 -40 0 -40 0 0 -230z"/>
<path d="M2930 18867 c0 -11 60 -294 85 -404 5 -20 12 -23 49 -23 l43 0 33
145 c19 80 37 140 41 133 4 -7 16 -56 28 -108 42 -183 36 -170 85 -170 l42 0
42 198 c23 108 45 207 48 220 6 20 3 22 -38 22 l-43 0 -24 -132 c-33 -188 -34
-190 -61 -73 -47 213 -42 200 -83 203 -20 2 -37 1 -37 -1 0 -11 -61 -273 -66
-287 -4 -8 -15 30 -25 85 -11 55 -24 124 -30 153 l-10 52 -40 0 c-26 0 -39 -4
-39 -13z"/>
<path d="M5594 18858 c3 -13 25 -112 48 -220 l43 -198 42 0 c48 0 41 -14 87
178 13 57 26 105 28 108 3 2 20 -61 38 -141 l33 -145 44 0 c36 0 43 3 48 23
18 75 85 394 85 404 0 8 -14 13 -39 13 -45 0 -39 15 -72 -172 -13 -70 -26
-125 -30 -123 -3 3 -9 19 -13 37 -3 18 -18 84 -32 146 l-26 113 -36 -3 c-31
-3 -37 -7 -43 -33 -4 -16 -20 -84 -35 -150 -18 -82 -29 -113 -34 -100 -4 11
-18 80 -31 153 l-23 132 -44 0 c-41 0 -44 -2 -38 -22z"/>
<path d="M6630 18800 c0 -33 -3 -40 -20 -40 -16 0 -20 -7 -20 -30 0 -23 4 -30
20 -30 18 0 20 -7 20 -82 0 -97 14 -154 40 -168 10 -5 37 -10 59 -10 40 0 41
1 41 35 0 19 -3 34 -7 34 -41 -7 -43 -1 -43 96 0 95 0 95 25 95 21 0 25 5 25
30 0 25 -4 30 -25 30 -22 0 -25 4 -25 40 l0 40 -45 0 -45 0 0 -40z"/>
<path d="M7710 18800 c0 -36 -2 -40 -25 -40 -21 0 -25 -5 -25 -30 0 -25 4 -30
25 -30 l25 0 0 -104 c0 -89 3 -107 21 -130 17 -22 28 -26 70 -26 l49 0 0 36
c0 24 -4 34 -12 31 -7 -2 -21 0 -30 5 -15 7 -18 23 -18 98 l0 90 30 0 c27 0
30 3 30 30 0 27 -3 30 -30 30 -28 0 -30 2 -30 40 l0 40 -40 0 -40 0 0 -40z"/>
<path d="M3524 18741 c-41 -25 -64 -77 -64 -146 0 -69 25 -115 74 -139 47 -22
123 -21 164 4 36 22 38 28 18 55 -13 18 -15 18 -50 1 -44 -21 -89 -14 -111 17
-8 12 -15 25 -15 29 0 5 45 8 100 8 l100 0 0 40 c0 53 -21 101 -55 128 -36 29
-117 30 -161 3z m114 -57 c12 -8 22 -24 22 -35 0 -17 -7 -19 -60 -19 -66 0
-73 8 -35 45 28 29 42 31 73 9z"/>
<path d="M4012 18748 c-92 -45 -90 -254 3 -296 41 -19 113 -15 150 8 26 16 55
62 55 86 0 2 -18 4 -39 4 -25 0 -41 -5 -45 -15 -3 -8 -17 -20 -30 -27 -34 -15
-71 10 -80 52 -17 86 26 156 80 131 14 -6 28 -20 31 -31 4 -16 14 -20 44 -20
22 0 39 5 39 11 0 26 -32 76 -59 92 -33 19 -113 22 -149 5z"/>
<path d="M4324 18741 c-40 -25 -64 -77 -64 -141 0 -102 52 -160 145 -160 95 0
147 56 147 160 0 68 -21 113 -65 140 -42 26 -121 26 -163 1z m121 -66 c20 -19
25 -34 25 -75 0 -41 -5 -56 -25 -75 -13 -14 -31 -25 -40 -25 -9 0 -27 11 -40
25 -20 19 -25 34 -25 75 0 41 5 56 25 75 13 14 31 25 40 25 9 0 27 -11 40 -25z"/>
<path d="M4610 18600 l0 -160 40 0 40 0 0 110 c0 97 2 112 20 130 24 24 38 25
68 4 21 -14 22 -23 22 -130 l0 -114 40 0 40 0 0 115 c0 112 1 115 25 131 21
14 31 15 50 6 25 -11 25 -14 25 -132 l0 -120 45 0 45 0 0 108 c0 122 -11 175
-43 197 -31 22 -99 19 -130 -5 l-26 -21 -21 21 c-24 24 -96 28 -126 5 -25 -19
-34 -19 -34 0 0 11 -11 15 -40 15 l-40 0 0 -160z"/>
<path d="M5193 18741 c-39 -24 -59 -61 -68 -123 -9 -60 20 -129 67 -158 45
-27 129 -27 174 1 39 24 41 30 16 53 -17 15 -21 15 -51 0 -35 -18 -75 -13
-103 13 -39 35 -23 43 82 43 l100 0 0 33 c0 51 -18 102 -45 127 -36 34 -127
39 -172 11z m117 -61 c37 -37 26 -50 -40 -50 -47 0 -60 3 -60 15 0 22 37 55
60 55 11 0 29 -9 40 -20z"/>
<path d="M6178 18745 c-27 -15 -48 -43 -48 -64 0 -17 77 -13 84 4 3 9 19 15
41 15 29 0 37 -5 45 -26 14 -35 14 -34 -27 -34 -59 0 -110 -18 -133 -47 -50
-64 -3 -153 82 -153 24 0 53 7 65 15 19 13 22 13 27 0 3 -10 19 -15 43 -15
l38 0 -5 130 c-5 125 -6 131 -32 157 -23 23 -38 28 -90 30 -43 2 -72 -2 -90
-12z m132 -180 c0 -49 -66 -85 -98 -53 -32 32 3 78 60 78 34 0 38 -3 38 -25z"/>
<path d="M6874 18750 c-31 -12 -54 -49 -54 -86 0 -40 42 -78 97 -89 56 -10 75
-23 71 -48 -4 -32 -70 -37 -95 -8 -11 13 -30 21 -50 21 -45 0 -44 -28 2 -69
31 -27 43 -31 94 -31 82 0 125 29 129 87 4 51 -18 77 -80 93 -73 20 -88 29
-88 50 0 39 78 47 87 8 7 -24 83 -27 83 -2 0 26 -19 53 -50 69 -31 16 -112 19
-146 5z"/>
<path d="M7187 18743 c-62 -40 -85 -150 -47 -228 28 -58 70 -79 144 -73 47 4
63 10 86 34 63 63 63 185 0 249 -25 25 -38 29 -92 32 -48 3 -70 -1 -91 -14z
m107 -53 c55 -20 55 -157 0 -182 -32 -15 -71 3 -85 39 -16 42 -5 114 21 135
26 21 30 21 64 8z"/>
<path d="M7367 17584 c-3 -4 1 -17 10 -30 15 -23 14 -25 -10 -44 -14 -11 -30
-33 -35 -50 l-11 -30 150 0 c169 0 174 3 115 67 -32 36 -33 39 -18 61 21 31 5
42 -18 12 -16 -21 -27 -24 -79 -25 -53 -1 -61 2 -72 22 -13 23 -21 28 -32 17z
m54 -99 c-1 -15 -24 -12 -29 3 -3 9 2 13 12 10 10 -1 17 -7 17 -13z m129 -1
c0 -17 -22 -14 -28 4 -2 7 3 12 12 12 9 0 16 -7 16 -16z"/>
<path d="M1430 17315 l0 -185 35 0 35 0 0 185 0 185 -35 0 -35 0 0 -185z"/>
<path d="M1932 17491 c-8 -4 -12 -19 -10 -32 2 -19 9 -24 33 -24 24 0 31 5 33
24 4 23 -11 41 -33 41 -5 0 -16 -4 -23 -9z"/>
<path d="M580 17310 l0 -180 35 0 35 0 0 65 0 65 33 0 c30 0 35 -5 65 -65 30
-62 34 -65 67 -65 19 0 35 2 35 5 0 3 -15 36 -34 73 l-34 67 29 33 c21 23 29
43 29 70 0 79 -54 112 -180 112 l-80 0 0 -180z m174 104 c9 -8 16 -26 16 -39
0 -36 -26 -55 -76 -55 l-44 0 0 55 0 55 44 0 c27 0 51 -6 60 -16z"/>
<path d="M8720 17434 c0 -50 -2 -55 -17 -49 -58 24 -98 10 -118 -40 -43 -102
17 -207 100 -176 20 7 31 8 33 1 2 -5 17 -10 33 -10 l29 0 0 165 0 165 -30 0
c-30 0 -30 0 -30 -56z m-12 -96 c7 -7 12 -33 12 -58 0 -51 -13 -70 -47 -70
-26 0 -43 27 -43 70 0 17 5 40 10 51 12 21 50 25 68 7z"/>
<path d="M9240 17475 c-17 -21 -5 -45 24 -45 28 0 37 17 24 43 -11 21 -31 22
-48 2z"/>
<path d="M9490 17434 c0 -50 -2 -55 -17 -49 -43 19 -70 17 -98 -8 -24 -20 -29
-33 -32 -83 -7 -97 47 -155 115 -124 18 8 28 8 30 1 2 -6 15 -11 28 -11 l24 0
0 165 0 165 -25 0 c-24 0 -25 -3 -25 -56z m-10 -103 c5 -11 10 -34 10 -51 0
-44 -17 -70 -45 -70 -28 0 -45 26 -45 70 0 44 17 70 45 70 14 0 29 -8 35 -19z"/>
<path d="M8086 17325 c-31 -86 -56 -158 -56 -161 0 -3 14 -4 32 -2 27 2 34 9
42 36 9 31 10 32 67 32 57 0 58 0 69 -35 10 -29 16 -35 41 -35 16 0 29 4 29 8
0 8 -75 219 -101 285 -9 20 -18 27 -39 27 -26 0 -30 -6 -84 -155z m103 24 c7
-23 15 -47 18 -55 4 -11 -5 -14 -37 -14 -32 0 -41 3 -37 14 3 8 11 32 18 55 7
23 15 41 19 41 4 0 12 -18 19 -41z"/>
<path d="M1760 17430 c0 -20 -5 -30 -15 -30 -9 0 -15 -9 -15 -25 0 -15 6 -25
14 -25 10 0 15 -23 18 -91 4 -82 7 -94 28 -111 15 -12 35 -18 54 -16 25 2 32
8 34 30 3 21 -1 27 -20 30 -21 3 -23 8 -26 81 -3 77 -3 77 23 77 20 0 25 5 25
25 0 20 -5 25 -25 25 -21 0 -25 5 -25 30 0 28 -3 30 -35 30 -32 0 -35 -2 -35
-30z"/>
<path d="M7247 17399 c-26 -15 -25 -174 1 -188 11 -6 24 -6 35 0 26 15 25 174
-1 188 -11 6 -24 6 -35 0z"/>
<path d="M7662 17398 c-18 -18 -16 -172 3 -188 12 -10 18 -10 30 0 11 9 15 34
15 94 0 74 -9 106 -30 106 -3 0 -11 -5 -18 -12z"/>
<path d="M939 17377 c-42 -28 -63 -84 -53 -141 16 -94 131 -137 205 -77 23 19
23 21 7 37 -14 14 -20 15 -32 5 -23 -20 -86 -10 -104 17 l-14 22 86 0 86 0 0
30 c0 105 -98 163 -181 107z m105 -59 c15 -24 5 -30 -48 -26 -46 3 -47 3 -30
26 19 27 61 27 78 0z"/>
<path d="M1205 17385 c-32 -17 -45 -32 -45 -52 0 -18 55 -16 70 2 15 18 42 19
58 3 21 -21 13 -38 -18 -38 -42 0 -96 -24 -109 -48 -38 -70 35 -143 113 -113
20 7 32 8 34 1 2 -5 20 -10 39 -10 28 0 34 3 29 16 -3 9 -6 56 -6 104 0 78 -3
92 -23 115 -29 34 -98 44 -142 20z m95 -155 c0 -37 -39 -62 -65 -40 -33 27
-11 70 37 70 24 0 28 -4 28 -30z"/>
<path d="M1920 17265 l0 -135 35 0 35 0 0 135 0 135 -35 0 -35 0 0 -135z"/>
<path d="M2050 17265 l0 -135 35 0 34 0 3 103 3 102 35 0 35 0 3 -102 3 -103
34 0 35 0 0 94 c0 101 9 120 52 114 22 -3 23 -7 26 -105 l3 -103 34 0 35 0 0
110 c0 104 -1 112 -25 135 -28 29 -63 32 -106 10 -27 -14 -32 -14 -51 0 -28
19 -61 19 -98 0 -27 -14 -30 -14 -30 0 0 10 -10 15 -30 15 l-30 0 0 -135z"/>
<path d="M2533 17384 c-71 -36 -85 -157 -24 -217 27 -28 38 -32 84 -32 34 0
63 6 81 18 26 18 27 19 11 37 -13 15 -22 17 -36 10 -40 -22 -109 -3 -109 31 0
5 36 9 80 9 l80 0 0 45 c0 87 -88 140 -167 99z m97 -63 c15 -30 14 -31 -40
-31 -54 0 -55 1 -40 31 7 12 21 19 40 19 19 0 33 -7 40 -19z"/>
<path d="M7322 17273 l3 -128 28 -3 c25 -3 27 -6 27 -53 0 -37 4 -51 16 -56
30 -11 49 11 52 61 3 41 6 46 27 46 22 0 24 -5 27 -52 3 -49 5 -53 28 -53 23
0 25 4 28 52 3 48 5 52 30 55 l27 3 3 128 3 127 -151 0 -151 0 3 -127z"/>
<path d="M8330 17280 l0 -120 30 0 30 0 0 84 c0 93 11 113 55 102 24 -6 25 -9
25 -96 l0 -90 30 0 30 0 0 95 c0 88 -2 98 -25 120 -28 29 -61 32 -93 9 -20
-14 -22 -14 -22 0 0 11 -10 16 -30 16 l-30 0 0 -120z"/>
<path d="M8830 17280 l0 -120 30 0 30 0 0 84 c0 88 4 96 51 96 14 0 19 7 19
30 0 33 -16 38 -53 19 -16 -9 -22 -9 -25 0 -2 6 -15 11 -28 11 l-24 0 0 -120z"/>
<path d="M9033 17390 c-32 -13 -63 -68 -63 -111 0 -128 168 -162 209 -42 36
101 -51 191 -146 153z m81 -62 c44 -63 -17 -154 -68 -102 -9 9 -16 32 -16 54
0 64 52 94 84 48z"/>
<path d="M9230 17280 l0 -120 30 0 30 0 0 120 0 120 -30 0 -30 0 0 -120z"/>
<path d="M9853 17293 l67 -68 67 68 68 67 -135 0 -135 0 68 -67z"/>
<path d="M1560 17280 l0 -30 65 0 65 0 0 30 0 30 -65 0 -65 0 0 -30z"/>
<path d="M945 15836 c-40 -17 -85 -71 -85 -102 0 -22 4 -24 50 -24 37 0 50 4
50 14 0 22 40 46 76 46 39 0 64 -27 64 -68 0 -47 -30 -72 -85 -72 l-45 0 0
-40 0 -40 48 0 c59 0 92 -28 92 -78 0 -45 -30 -72 -80 -72 -32 0 -43 5 -62 30
-19 26 -28 30 -71 30 -49 0 -49 0 -42 -27 17 -72 81 -113 175 -113 112 0 180
58 180 154 0 44 -4 53 -37 84 l-38 36 33 32 c27 27 32 39 32 78 0 64 -23 104
-73 127 -49 22 -138 24 -182 5z"/>
<path d="M6022 15473 c-18 -163 -18 -161 25 -169 22 -4 43 -2 54 5 11 6 36 11
58 11 52 0 81 -34 81 -95 0 -57 -30 -95 -75 -95 -36 0 -60 17 -70 50 -5 16
-15 20 -56 20 -41 0 -49 -3 -49 -19 0 -24 38 -79 73 -105 40 -30 149 -34 197
-8 96 53 109 239 20 302 -36 25 -101 35 -141 21 -18 -6 -33 -10 -34 -9 -1 2 1
26 4 53 l6 50 105 5 105 5 3 43 3 42 -149 0 -149 0 -11 -107z"/>
<path d="M860 14730 l0 -160 25 0 25 0 0 160 0 160 -25 0 -25 0 0 -160z"/>
<path d="M1452 14863 c-31 -78 -102 -275 -102 -283 0 -6 11 -10 23 -10 19 0
26 8 36 40 l12 40 63 0 63 0 12 -40 c10 -33 16 -40 36 -40 14 0 25 3 25 6 0 3
-25 75 -57 160 -49 136 -59 154 -78 154 -15 0 -26 -9 -33 -27z m54 -95 c9 -29
19 -59 22 -65 3 -9 -9 -13 -43 -13 -34 0 -46 4 -43 13 3 6 13 36 22 65 10 28
19 52 21 52 2 0 11 -24 21 -52z"/>
<path d="M980 14690 l0 -120 25 0 c24 0 24 2 27 92 3 92 3 93 31 103 44 15 57
-11 57 -112 0 -82 0 -83 25 -83 25 0 25 1 24 83 -1 103 -8 128 -41 147 -23 12
-32 13 -64 1 -28 -10 -39 -11 -42 -2 -2 6 -12 11 -23 11 -18 0 -19 -8 -19
-120z"/>
<path d="M1650 14645 l0 -165 25 0 c24 0 25 3 25 54 l0 54 33 -10 c65 -20 117
30 117 112 0 84 -52 132 -120 111 -23 -7 -36 -7 -38 -1 -2 6 -12 10 -23 10
-18 0 -19 -9 -19 -165z m130 105 c40 -40 16 -140 -34 -140 -35 0 -46 20 -46
80 0 79 35 105 80 60z"/>
<path d="M1900 14645 c0 -158 1 -165 20 -165 18 0 20 7 20 56 0 50 2 55 18 49
63 -27 114 -2 132 66 12 44 0 108 -26 134 -23 22 -62 29 -92 15 -18 -8 -28 -8
-30 -1 -2 6 -12 11 -23 11 -18 0 -19 -9 -19 -165z m124 109 c39 -39 29 -122
-17 -138 -40 -15 -67 14 -67 72 0 70 45 105 84 66z"/>
<path d="M1210 14700 c0 -18 7 -20 55 -20 48 0 55 2 55 20 0 18 -7 20 -55 20
-48 0 -55 -2 -55 -20z"/>
<path d="M6536 14629 c-17 -14 -26 -30 -26 -50 0 -22 -5 -29 -20 -29 -13 0
-20 -7 -20 -20 0 -13 7 -20 20 -20 19 0 20 -7 20 -100 l0 -100 25 0 25 0 0
100 c0 93 1 100 20 100 13 0 20 7 20 20 0 13 -7 20 -20 20 -32 0 -27 48 5 56
16 4 25 13 25 25 0 26 -40 25 -74 -2z"/>
<path d="M7280 14584 c0 -50 -2 -55 -17 -49 -64 27 -115 2 -133 -66 -27 -98
48 -188 123 -148 16 9 22 9 25 0 2 -6 12 -11 23 -11 18 0 19 9 19 165 0 158
-1 165 -20 165 -18 0 -20 -7 -20 -56z m-18 -91 c26 -23 25 -104 -2 -128 -45
-41 -98 11 -86 85 9 55 51 76 88 43z"/>
<path d="M5980 14471 l0 -161 25 0 c24 0 25 3 25 60 l0 60 35 0 c32 0 37 -4
65 -60 25 -49 35 -60 55 -60 14 0 25 2 25 5 0 3 -13 32 -30 65 l-30 59 25 25
c34 34 34 94 2 132 -22 25 -31 28 -110 32 l-87 5 0 -162z m148 103 c53 -37 11
-109 -60 -102 -31 3 -33 5 -36 47 -2 24 -1 50 2 57 7 19 66 18 94 -2z"/>
<path d="M6301 14537 c-34 -20 -50 -55 -51 -112 0 -61 18 -89 66 -105 39 -13
80 -7 106 17 14 12 15 19 7 29 -9 11 -15 11 -32 -1 -32 -23 -63 -18 -87 13
l-22 27 79 5 c54 3 78 9 77 18 -1 6 -2 23 -2 36 -4 60 -88 103 -141 73z m83
-49 c24 -34 20 -38 -34 -38 -54 0 -65 14 -34 44 22 22 50 20 68 -6z"/>
<path d="M6650 14454 c0 -52 5 -104 10 -114 13 -25 71 -36 101 -19 17 9 24 9
27 0 2 -6 12 -11 23 -11 18 0 19 8 19 120 0 113 -1 120 -20 120 -18 0 -20 -7
-20 -84 0 -76 -2 -86 -22 -100 -28 -20 -43 -20 -62 0 -12 12 -16 36 -16 100 0
77 -2 84 -20 84 -19 0 -20 -7 -20 -96z"/>
<path d="M6890 14430 l0 -120 25 0 c25 0 25 1 25 90 0 87 1 91 26 102 47 22
59 3 62 -101 3 -89 3 -91 27 -91 25 0 25 1 25 95 0 88 -2 98 -25 120 -28 29
-61 32 -93 9 -20 -14 -22 -14 -22 0 0 10 -9 16 -25 16 l-25 0 0 -120z"/>
<path d="M7423 14540 c-28 -12 -46 -46 -39 -75 5 -18 21 -29 67 -46 50 -18 59
-26 57 -43 -4 -30 -62 -35 -80 -7 -13 22 -42 28 -53 12 -3 -5 6 -22 19 -38 21
-24 32 -28 74 -28 116 0 129 110 15 131 -37 7 -58 27 -49 49 7 20 65 20 72 0
4 -8 17 -15 31 -15 19 0 24 4 19 16 -3 9 -6 17 -6 20 0 2 -13 10 -30 19 -32
17 -64 18 -97 5z"/>
<path d="M1360 14215 l0 -165 25 0 c16 0 25 6 25 16 0 14 2 14 22 0 34 -24 66
-19 99 13 26 26 29 36 29 91 0 55 -3 65 -30 92 -31 30 -55 34 -102 13 -16 -6
-18 -1 -18 49 0 53 -1 56 -25 56 l-25 0 0 -165z m127 27 c43 -27 33 -137 -13
-148 -39 -10 -64 19 -64 74 0 64 37 100 77 74z"/>
<path d="M901 14352 c-41 -20 -56 -57 -41 -96 7 -19 26 -34 67 -52 86 -37 88
-39 91 -67 6 -53 -97 -63 -120 -11 -7 16 -19 24 -35 24 -21 0 -23 -3 -17 -22
10 -34 33 -56 71 -69 76 -25 153 14 153 78 0 41 -23 65 -86 88 -84 31 -104 60
-62 89 32 22 55 20 84 -9 25 -25 64 -34 64 -14 0 24 -24 52 -55 65 -45 18 -73
18 -114 -4z"/>
<path d="M2233 14359 c-16 -16 -5 -39 18 -39 24 0 37 29 18 41 -18 11 -23 11
-36 -2z"/>
<path d="M2987 14364 c-4 -4 -7 -16 -7 -26 0 -13 7 -18 26 -18 21 0 25 4 22
22 -3 23 -27 35 -41 22z"/>
<path d="M2600 14315 c0 -18 -5 -25 -20 -25 -13 0 -20 -7 -20 -20 0 -13 7 -20
20 -20 18 0 20 -7 20 -84 0 -95 13 -119 59 -114 32 4 40 33 11 41 -18 5 -20
13 -20 81 0 69 2 76 20 76 13 0 20 7 20 20 0 13 -7 20 -20 20 -15 0 -20 7 -20
25 0 20 -5 25 -25 25 -20 0 -25 -5 -25 -25z"/>
<path d="M1120 14191 c0 -96 1 -100 26 -120 30 -24 55 -26 87 -10 16 9 22 9
25 0 2 -6 15 -11 28 -11 l24 0 0 120 0 120 -25 0 c-25 0 -25 -1 -25 -84 0
-103 -19 -131 -74 -110 -13 5 -16 24 -16 100 0 94 0 94 -25 94 -25 0 -25 0
-25 -99z"/>
<path d="M1660 14283 c-52 -19 -68 -81 -27 -107 12 -8 36 -17 54 -21 37 -7 58
-28 49 -50 -8 -23 -63 -19 -78 5 -13 20 -58 28 -58 11 0 -4 9 -20 20 -34 58
-74 203 -18 161 62 -7 13 -32 27 -67 37 -47 13 -55 19 -52 37 4 27 49 35 68
13 7 -9 23 -16 36 -16 21 0 23 2 12 25 -15 34 -76 53 -118 38z"/>
<path d="M1888 14279 c-50 -19 -75 -118 -44 -178 15 -28 53 -51 87 -51 43 0
89 37 89 71 0 16 -29 10 -50 -11 -44 -44 -90 -12 -90 62 0 32 6 50 20 63 24
22 66 13 75 -15 7 -23 45 -28 45 -6 0 28 -13 47 -41 61 -32 17 -52 18 -91 4z"/>
<path d="M2070 14170 l0 -120 25 0 c25 0 25 1 25 83 0 89 8 107 47 107 18 0
23 6 23 25 0 27 -18 32 -50 15 -13 -7 -21 -7 -25 0 -3 5 -15 10 -26 10 -18 0
-19 -8 -19 -120z"/>
<path d="M2230 14170 l0 -120 25 0 25 0 0 120 0 120 -25 0 -25 0 0 -120z"/>
<path d="M2340 14125 c0 -158 1 -165 20 -165 18 0 20 7 20 56 0 50 2 55 18 49
63 -27 114 -2 132 66 12 44 0 108 -26 134 -23 22 -62 29 -92 15 -18 -8 -28 -8
-30 -1 -2 6 -12 11 -23 11 -18 0 -19 -9 -19 -165z m124 109 c39 -39 29 -122
-17 -138 -40 -15 -67 14 -67 72 0 70 45 105 84 66z"/>
<path d="M2763 14271 c-35 -22 -46 -48 -45 -107 0 -53 15 -80 52 -99 63 -32
132 -3 150 65 30 112 -64 197 -157 141z m91 -37 c33 -32 33 -96 0 -128 -31
-32 -77 -11 -90 40 -12 48 18 104 56 104 10 0 26 -7 34 -16z"/>
<path d="M2980 14170 l0 -120 25 0 25 0 0 120 0 120 -25 0 -25 0 0 -120z"/>
<path d="M3090 14170 l0 -120 25 0 c24 0 24 2 27 92 3 92 3 93 31 103 44 15
57 -11 57 -112 0 -82 0 -83 25 -83 25 0 25 1 24 83 -1 103 -8 128 -41 147 -23
12 -32 13 -64 1 -28 -10 -39 -11 -42 -2 -2 6 -12 11 -23 11 -18 0 -19 -8 -19
-120z"/>
<path d="M3380 14283 c-52 -19 -68 -81 -27 -107 12 -8 36 -17 54 -21 37 -7 58
-28 49 -50 -8 -23 -63 -19 -78 5 -13 20 -58 28 -58 11 0 -4 9 -20 20 -34 58
-74 203 -18 161 62 -7 13 -32 27 -67 37 -47 13 -55 19 -52 37 4 27 49 35 68
13 7 -9 23 -16 36 -16 21 0 23 2 12 25 -15 34 -76 53 -118 38z"/>
<path d="M1020 12601 c0 -35 -3 -40 -30 -46 -92 -20 -140 -138 -87 -216 15
-23 49 -48 107 -77 46 -23 88 -48 92 -55 12 -19 9 -74 -4 -85 -46 -36 -111
-19 -130 34 -11 32 -15 34 -60 34 -42 0 -48 -3 -48 -20 0 -61 51 -119 120
-137 31 -8 35 -13 38 -46 3 -31 7 -37 27 -37 20 0 24 6 27 36 3 32 7 37 43 50
22 7 52 27 68 44 23 26 27 39 27 89 0 77 -22 104 -126 155 -105 51 -125 82
-88 134 30 43 114 15 114 -38 0 -17 7 -20 50 -20 48 0 50 1 50 29 0 41 -39 93
-87 116 -40 18 -43 23 -43 57 0 36 -2 38 -30 38 -28 0 -30 -2 -30 -39z"/>
<path d="M1381 12384 c-61 -96 -111 -181 -111 -189 0 -42 9 -45 116 -45 l104
0 0 -60 0 -60 50 0 49 0 3 58 c3 54 4 57 31 60 24 3 27 7 27 43 0 37 -2 39
-30 39 l-30 0 0 165 0 165 -49 0 -49 0 -111 -176z m109 -64 l0 -90 -55 0 c-30
0 -55 3 -55 6 0 7 103 174 108 174 1 0 2 -40 2 -90z"/>
<path d="M1760 12547 c0 -7 -7 -67 -15 -132 -8 -66 -15 -121 -15 -122 0 -1 21
-5 46 -9 29 -4 50 -2 57 5 18 18 82 13 108 -8 20 -16 24 -29 24 -74 0 -67 -22
-97 -72 -97 -35 0 -73 29 -73 55 0 11 -12 15 -50 15 -45 0 -50 -2 -50 -22 0
-98 179 -168 270 -105 53 36 73 70 78 135 6 85 -22 146 -80 172 -48 22 -84 25
-124 10 -15 -6 -28 -9 -30 -7 -2 2 -1 27 3 55 l6 52 103 0 104 0 0 45 0 45
-145 0 c-112 0 -145 -3 -145 -13z"/>
<path d="M2224 12541 c-54 -33 -78 -78 -82 -152 -5 -74 19 -136 63 -165 37
-24 98 -29 136 -10 40 20 39 20 39 -5 0 -12 -15 -36 -33 -54 -26 -26 -46 -35
-85 -41 l-52 -7 0 -38 c0 -38 1 -39 38 -39 96 0 172 51 213 143 19 43 23 69
24 152 0 88 -3 105 -25 145 -36 63 -80 90 -149 90 -37 0 -66 -6 -87 -19z m135
-84 c14 -16 24 -42 28 -76 5 -45 3 -55 -17 -76 -55 -59 -130 -15 -130 75 0 88
67 131 119 77z"/>
<path d="M6120 12520 l-105 -38 -3 -41 c-3 -41 -3 -42 25 -35 15 4 38 11 51
15 53 20 52 24 52 -191 l0 -200 50 0 50 0 0 265 c0 146 -3 265 -7 264 -5 0
-55 -18 -113 -39z"/>
<path d="M6482 12539 c-43 -22 -72 -61 -72 -99 0 -17 6 -20 50 -20 37 0 50 4
50 14 0 22 40 46 76 46 38 0 64 -27 64 -66 0 -48 -20 -66 -78 -72 l-52 -5 0
-38 0 -39 44 0 c59 0 96 -29 96 -75 0 -70 -85 -101 -135 -50 -14 13 -25 29
-25 35 0 5 -22 10 -50 10 -45 0 -50 -2 -50 -22 0 -70 82 -128 180 -128 112 0
171 47 178 141 4 59 4 60 -35 97 l-39 37 28 23 c46 39 56 132 17 178 -45 55
-169 71 -247 33z"/>
<path d="M6870 11623 c-31 -12 -50 -37 -50 -65 0 -21 -5 -28 -20 -28 -13 0
-20 -7 -20 -20 0 -13 7 -20 20 -20 19 0 20 -7 20 -100 0 -93 1 -100 20 -100
19 0 20 7 20 100 l0 100 25 0 c18 0 25 5 25 20 0 15 -7 20 -25 20 -31 0 -33
23 -4 44 14 9 33 13 50 9 21 -4 30 -1 35 11 4 9 5 19 2 21 -8 8 -83 14 -98 8z"/>
<path d="M1720 11455 l0 -165 25 0 c22 0 25 4 25 39 0 22 6 44 15 51 9 7 17
11 19 9 1 -2 17 -25 35 -51 24 -36 38 -48 57 -48 28 0 29 -3 -28 83 l-39 58
41 47 42 47 -26 3 c-21 3 -36 -7 -71 -45 l-44 -48 -1 93 c0 91 0 92 -25 92
l-25 0 0 -165z"/>
<path d="M2330 11564 c0 -50 -2 -55 -17 -49 -48 21 -72 17 -103 -13 -26 -26
-30 -38 -30 -84 0 -63 15 -97 52 -118 23 -12 33 -13 60 -2 21 8 34 9 36 2 2
-5 15 -10 28 -10 l24 0 0 165 0 165 -25 0 c-24 0 -25 -3 -25 -56z m-16 -90
c24 -23 21 -106 -4 -129 -30 -27 -67 -13 -79 30 -21 78 36 147 83 99z"/>
<path d="M840 11590 c0 -17 7 -20 45 -20 l45 0 0 -140 0 -140 25 0 24 0 3 138
3 137 48 3 c39 3 47 6 47 23 0 18 -8 19 -120 19 -113 0 -120 -1 -120 -20z"/>
<path d="M2550 11450 l0 -160 25 0 c24 0 25 3 25 60 l0 60 33 0 c31 0 35 -4
62 -60 25 -53 32 -60 58 -60 l28 0 -35 66 -35 67 24 19 c53 41 37 135 -26 157
-18 6 -61 11 -95 11 l-64 0 0 -160z m150 100 c43 -43 9 -100 -60 -100 l-40 0
0 60 0 60 40 0 c27 0 47 -7 60 -20z"/>
<path d="M5980 11450 l0 -160 25 0 25 0 0 110 c0 61 3 110 8 110 4 0 36 -50
72 -110 57 -97 68 -109 93 -110 l27 0 0 160 0 160 -25 0 -25 0 0 -111 c0 -60
-4 -108 -9 -105 -5 3 -37 53 -72 111 -56 92 -67 105 -91 105 l-28 0 0 -160z"/>
<path d="M6697 11604 c-4 -4 -7 -16 -7 -26 0 -13 7 -18 26 -18 21 0 25 4 22
22 -3 23 -27 35 -41 22z"/>
<path d="M7681 11601 c-19 -12 -6 -41 18 -41 26 0 36 17 21 35 -14 17 -20 18
-39 6z"/>
<path d="M8680 11603 c-32 -12 -60 -47 -60 -75 0 -46 15 -64 77 -88 73 -29 83
-37 83 -66 0 -52 -93 -57 -115 -6 -12 27 -55 31 -55 4 0 -72 143 -109 201 -51
24 24 26 91 3 110 -9 8 -44 25 -78 39 -52 21 -61 29 -64 52 -3 22 2 30 22 39
32 15 77 3 83 -21 6 -21 53 -29 53 -9 0 51 -90 94 -150 72z"/>
<path d="M6550 11555 c0 -16 -6 -25 -15 -25 -8 0 -15 -9 -15 -20 0 -11 6 -20
14 -20 10 0 15 -22 18 -86 5 -95 19 -118 68 -112 32 4 37 30 8 43 -20 9 -23
18 -26 83 -3 67 -1 72 18 72 13 0 20 7 20 20 0 13 -7 20 -20 20 -15 0 -20 7
-20 25 0 20 -5 25 -25 25 -20 0 -25 -5 -25 -25z"/>
<path d="M7540 11555 c0 -18 -5 -25 -20 -25 -13 0 -20 -7 -20 -20 0 -13 7 -20
20 -20 18 0 20 -7 20 -85 0 -79 2 -86 25 -101 13 -8 32 -14 42 -12 26 5 28 34
3 41 -18 5 -20 13 -20 81 0 69 2 76 20 76 13 0 20 7 20 20 0 13 -7 20 -20 20
-15 0 -20 7 -20 25 0 20 -5 25 -25 25 -20 0 -25 -5 -25 -25z"/>
<path d="M9380 11555 c0 -18 -5 -25 -20 -25 -13 0 -20 -7 -20 -20 0 -13 7 -20
20 -20 18 0 20 -7 20 -84 0 -95 13 -119 59 -114 32 4 40 33 11 41 -18 5 -20
13 -20 81 0 69 2 76 20 76 13 0 20 7 20 20 0 13 -7 20 -20 20 -15 0 -20 7 -20
25 0 20 -5 25 -25 25 -20 0 -25 -5 -25 -25z"/>
<path d="M1110 11410 c0 -113 1 -120 20 -120 18 0 20 7 20 79 0 85 12 111 51
111 14 0 19 7 19 25 0 29 -16 32 -48 9 -20 -14 -22 -14 -22 0 0 9 -9 16 -20
16 -19 0 -20 -7 -20 -120z"/>
<path d="M1310 11523 c-24 -9 -50 -35 -50 -50 0 -18 35 -17 50 2 23 28 80 13
80 -22 0 -8 -12 -13 -29 -13 -97 0 -149 -79 -85 -129 30 -24 55 -26 87 -10 16
9 22 9 25 0 2 -6 15 -11 29 -11 l25 0 -4 95 c-2 79 -6 98 -24 115 -21 21 -78
34 -104 23z m80 -136 c0 -34 -33 -61 -65 -53 -18 5 -25 13 -25 31 0 28 23 44
63 45 22 0 27 -4 27 -23z"/>
<path d="M1543 11520 c-35 -14 -57 -57 -57 -110 0 -81 50 -129 121 -115 29 5
73 45 73 66 0 17 -45 9 -58 -11 -15 -24 -54 -26 -73 -3 -8 9 -14 37 -14 63 0
26 6 54 14 63 20 25 58 21 77 -8 18 -27 54 -34 54 -11 0 47 -85 88 -137 66z"/>
<path d="M2005 11521 c-43 -18 -60 -50 -60 -111 0 -69 26 -106 83 -116 39 -8
106 19 99 39 -4 12 -12 12 -69 0 -18 -3 -32 1 -47 16 -34 34 -26 41 54 41 l75
0 0 30 c0 80 -66 129 -135 101z m75 -50 c18 -34 12 -41 -40 -41 -54 0 -58 4
-34 38 19 27 60 29 74 3z"/>
<path d="M2875 11521 c-43 -18 -60 -50 -60 -111 0 -69 26 -106 83 -116 39 -8
106 19 99 39 -4 12 -12 12 -69 0 -18 -3 -32 1 -47 16 -34 34 -26 41 54 41 l75
0 0 30 c0 80 -66 129 -135 101z m75 -50 c18 -34 12 -41 -40 -41 -54 0 -58 4
-34 38 19 27 60 29 74 3z"/>
<path d="M3032 11518 c3 -7 22 -62 43 -121 56 -160 66 -153 151 115 4 14 0 18
-19 18 -22 0 -27 -8 -50 -87 -13 -49 -27 -81 -30 -73 -3 8 -15 48 -27 88 -19
65 -23 72 -46 72 -17 0 -25 -5 -22 -12z"/>
<path d="M3324 11520 c-66 -26 -87 -131 -38 -189 32 -39 83 -50 130 -27 19 8
34 20 34 26 0 16 -30 24 -43 11 -24 -24 -97 1 -97 35 0 11 16 14 75 14 74 0
75 0 75 26 0 80 -68 132 -136 104z m70 -46 c31 -30 20 -44 -34 -44 -54 0 -62
10 -33 42 20 22 46 23 67 2z"/>
<path d="M3500 11410 l0 -120 25 0 c25 0 25 1 25 84 0 89 12 116 49 116 33 0
41 -22 41 -112 0 -87 0 -88 25 -88 25 0 25 0 25 99 0 77 -4 103 -16 115 -24
25 -60 29 -94 13 -25 -13 -30 -13 -30 -1 0 8 -10 14 -25 14 l-25 0 0 -120z"/>
<path d="M3750 11431 c0 -96 1 -100 26 -120 30 -24 55 -26 87 -10 16 9 22 9
25 0 2 -6 15 -11 28 -11 l24 0 0 120 0 120 -25 0 c-25 0 -25 -1 -25 -84 0
-103 -19 -131 -74 -110 -13 5 -16 24 -16 100 0 94 0 94 -25 94 -25 0 -25 0
-25 -99z"/>
<path d="M4033 11511 c-43 -27 -61 -85 -44 -141 22 -74 117 -103 172 -54 27
24 9 42 -26 26 -37 -17 -62 -15 -85 8 -33 33 -24 40 55 40 l75 0 0 39 c0 80
-80 124 -147 82z m85 -33 c7 -7 12 -20 12 -30 0 -15 -9 -18 -50 -18 -43 0 -49
2 -43 18 13 37 57 54 81 30z"/>
<path d="M6340 11517 c-58 -29 -75 -128 -32 -186 40 -55 137 -49 167 10 19 36
19 102 0 138 -22 44 -87 62 -135 38z m85 -47 c38 -42 13 -140 -37 -140 -32 0
-58 36 -58 80 0 68 56 103 95 60z"/>
<path d="M6690 11410 l0 -120 25 0 25 0 0 120 0 120 -25 0 -25 0 0 -120z"/>
<path d="M6950 11410 l0 -120 25 0 25 0 0 120 0 120 -25 0 -25 0 0 -120z"/>
<path d="M7101 11516 c-33 -18 -50 -53 -51 -104 0 -96 71 -148 149 -107 26 13
41 33 41 56 0 17 -35 9 -53 -11 -47 -56 -109 12 -86 95 14 49 53 59 85 22 37
-43 67 -32 48 18 -8 20 -56 45 -86 45 -13 -1 -34 -7 -47 -14z"/>
<path d="M7340 11523 c-24 -9 -50 -35 -50 -50 0 -18 35 -17 50 2 23 28 80 13
80 -22 0 -8 -12 -13 -30 -13 -54 0 -97 -25 -105 -59 -13 -62 41 -105 105 -83
18 7 32 7 35 1 4 -5 16 -9 28 -9 22 0 22 2 16 102 -4 57 -7 104 -8 105 -1 1
-14 9 -31 18 -29 15 -62 18 -90 8z m80 -143 c0 -55 -78 -68 -89 -15 -4 24 25
45 61 45 24 0 28 -4 28 -30z"/>
<path d="M7670 11410 l0 -120 25 0 25 0 0 120 0 120 -25 0 -25 0 0 -120z"/>
<path d="M7823 11511 c-35 -22 -46 -48 -45 -107 0 -53 15 -80 52 -99 63 -32
132 -3 150 65 30 112 -64 197 -157 141z m91 -37 c45 -45 22 -144 -34 -144 -38
0 -68 56 -56 104 8 32 32 56 56 56 10 0 26 -7 34 -16z"/>
<path d="M8040 11410 c0 -113 1 -120 20 -120 18 0 20 7 20 83 0 71 3 87 20
102 25 23 65 13 74 -17 3 -13 6 -56 6 -95 0 -66 2 -73 20 -73 19 0 20 7 20 96
0 52 -4 104 -10 114 -14 26 -64 35 -100 17 -26 -13 -30 -13 -30 -1 0 8 -9 14
-20 14 -19 0 -20 -7 -20 -120z"/>
<path d="M8330 11523 c-52 -19 -68 -81 -27 -107 12 -8 36 -17 54 -21 37 -7 58
-28 49 -50 -8 -23 -63 -19 -78 5 -13 20 -58 28 -58 11 0 -4 9 -20 20 -34 58
-74 203 -18 161 62 -7 13 -32 27 -67 37 -47 13 -55 19 -52 37 4 27 49 35 68
13 7 -9 23 -16 36 -16 21 0 23 2 12 25 -15 34 -76 53 -118 38z"/>
<path d="M8931 11517 c-34 -20 -50 -55 -51 -112 0 -61 18 -89 66 -105 39 -13
80 -7 106 17 14 12 15 19 7 29 -9 11 -15 11 -32 -1 -32 -23 -63 -18 -87 13
l-22 27 79 5 c54 3 78 9 77 18 -1 6 -2 23 -2 36 -4 60 -88 103 -141 73z m83
-49 c24 -34 20 -38 -34 -38 -54 0 -65 14 -34 44 22 22 50 20 68 -6z"/>
<path d="M9120 11410 l0 -120 25 0 c24 0 24 2 27 92 3 92 3 93 31 103 44 15
57 -11 57 -112 0 -82 0 -83 25 -83 25 0 25 1 24 83 -1 103 -8 128 -41 147 -23
12 -32 13 -64 1 -28 -10 -39 -11 -42 -2 -2 6 -12 11 -23 11 -18 0 -19 -8 -19
-120z"/>
<path d="M2910 9350 l0 -190 25 0 25 0 0 190 0 190 -25 0 -25 0 0 -190z"/>
<path d="M913 9505 c-38 -16 -53 -42 -53 -89 0 -28 7 -40 33 -60 19 -15 37
-26 41 -26 24 0 105 -45 109 -60 9 -33 -20 -60 -64 -60 -38 0 -79 26 -79 50 0
6 -13 10 -29 10 -25 0 -28 -3 -23 -25 14 -78 154 -111 226 -54 21 16 26 29 26
63 0 53 -24 77 -105 109 -71 27 -92 53 -69 85 26 37 98 28 115 -14 6 -17 16
-24 34 -24 50 0 20 71 -41 96 -42 17 -80 17 -121 -1z"/>
<path d="M2402 9381 c3 -123 6 -143 24 -168 45 -61 151 -68 206 -13 l28 28 0
146 0 146 -24 0 -24 0 -4 -134 c-3 -151 -14 -176 -72 -176 -65 0 -76 28 -76
184 l0 126 -31 0 -31 0 4 -139z"/>
<path d="M1208 9414 c-58 -31 -78 -137 -38 -201 25 -42 84 -61 139 -45 53 16
66 34 42 56 -16 15 -19 15 -31 1 -29 -34 -95 -12 -113 38 -6 15 2 17 78 17
l85 0 0 35 c0 92 -82 143 -162 99z m102 -53 c18 -35 12 -41 -45 -41 -57 0 -63
6 -45 41 7 13 21 19 45 19 24 0 38 -6 45 -19z"/>
<path d="M1420 9295 l0 -135 30 0 30 0 0 93 c0 102 7 117 52 117 24 0 28 4 28
30 0 24 -4 30 -22 30 -12 0 -30 -7 -40 -17 -17 -15 -18 -15 -18 0 0 12 -9 17
-30 17 l-30 0 0 -135z"/>
<path d="M1580 9424 c0 -5 19 -66 42 -136 40 -120 44 -128 68 -128 24 0 28 8
68 128 23 70 42 131 42 136 0 4 -12 6 -27 4 -26 -3 -30 -10 -52 -90 -13 -49
-27 -88 -30 -88 -3 0 -17 39 -31 88 -24 80 -28 87 -53 90 -15 2 -27 0 -27 -4z"/>
<path d="M1901 9417 c-38 -19 -63 -62 -68 -114 -4 -39 0 -55 19 -83 13 -19 35
-41 48 -48 57 -30 173 13 141 52 -12 14 -16 14 -34 1 -30 -21 -73 -19 -97 5
-40 40 -28 50 65 50 l85 0 0 28 c0 15 -8 43 -18 62 -27 55 -87 75 -141 47z
m87 -49 c7 -7 12 -20 12 -30 0 -15 -9 -18 -55 -18 -59 0 -63 4 -39 38 17 24
62 30 82 10z"/>
<path d="M2110 9295 l0 -135 25 0 c25 0 25 0 25 93 0 102 7 117 52 117 24 0
28 4 28 30 0 35 -21 40 -58 14 -20 -14 -22 -14 -22 0 0 10 -9 16 -25 16 l-25
0 0 -135z"/>
<path d="M2730 9295 l0 -135 25 0 c25 0 25 0 25 93 0 102 7 117 52 117 24 0
28 4 28 30 0 35 -21 40 -58 14 -20 -14 -22 -14 -22 0 0 10 -9 16 -25 16 l-25
0 0 -135z"/>
<path d="M8653 8740 c-23 -9 -23 -12 -23 -185 0 -168 1 -175 20 -175 19 0 20
7 20 160 l0 159 138 3 c129 3 137 4 137 23 0 19 -7 20 -135 22 -74 1 -145 -2
-157 -7z"/>
<path d="M9770 8700 c-11 -11 -20 -30 -20 -42 -1 -18 -18 -33 -75 -66 -66 -37
-80 -41 -115 -36 -51 8 -80 -14 -80 -61 0 -46 29 -69 78 -61 34 5 50 0 115
-37 58 -32 77 -48 81 -68 11 -55 59 -75 104 -43 28 19 29 67 2 94 -21 21 -59
26 -75 11 -6 -6 -41 8 -92 37 -107 61 -108 73 -8 130 65 37 80 41 115 36 51
-8 80 14 80 61 0 59 -68 87 -110 45z"/>
<path d="M850 8505 c0 -138 1 -145 20 -145 18 0 20 7 20 78 0 82 9 102 45 102
36 0 45 -20 45 -102 0 -63 3 -78 15 -78 12 0 15 16 15 85 0 72 -3 88 -20 105
-22 22 -51 26 -81 10 -18 -10 -19 -7 -19 40 0 43 -3 50 -20 50 -19 0 -20 -7
-20 -145z"/>
<path d="M2100 8505 c0 -122 2 -145 15 -145 12 0 15 15 15 73 0 80 15 107 59
107 29 0 41 -34 41 -116 0 -52 3 -64 16 -64 14 0 15 13 12 91 -2 77 -6 93 -23
105 -19 15 -52 14 -87 -1 -16 -6 -18 -1 -18 44 0 39 -4 51 -15 51 -13 0 -15
-23 -15 -145z"/>
<path d="M2950 8505 c0 -122 2 -145 15 -145 11 0 15 11 15 39 0 21 6 44 14 50
11 9 20 1 47 -39 19 -27 42 -50 52 -50 24 0 22 4 -24 65 l-41 54 37 43 c29 35
33 44 20 46 -11 3 -34 -15 -61 -45 l-43 -48 -1 88 c0 70 -3 87 -15 87 -13 0
-15 -23 -15 -145z"/>
<path d="M7880 8505 c0 -122 2 -145 15 -145 13 0 15 23 15 145 0 122 -2 145
-15 145 -13 0 -15 -23 -15 -145z"/>
<path d="M8732 8638 c-15 -15 -17 -355 -2 -378 7 -12 38 -16 145 -18 196 -5
185 -17 185 206 0 125 -4 182 -12 190 -8 8 -58 12 -158 12 -100 0 -150 -4
-158 -12z m288 -188 l0 -160 -130 0 -130 0 0 160 0 160 130 0 130 0 0 -160z"/>
<path d="M1858 8489 c-40 -108 -52 -149 -41 -147 9 2 34 54 63 129 63 167 64
169 48 169 -8 0 -36 -62 -70 -151z"/>
<path d="M2002 8558 c-82 -216 -82 -218 -68 -218 8 0 33 53 64 133 28 72 53
140 57 150 5 11 2 17 -7 17 -9 0 -27 -32 -46 -82z"/>
<path d="M6090 8620 c0 -11 7 -20 15 -20 8 0 15 9 15 20 0 11 -7 20 -15 20 -8
0 -15 -9 -15 -20z"/>
<path d="M8130 8621 c-25 -10 -46 -26 -48 -35 -3 -16 -1 -16 32 -2 l36 15 0
-120 c0 -99 3 -119 15 -119 13 0 15 22 15 140 0 77 -1 140 -2 139 -2 0 -23 -8
-48 -18z"/>
<path d="M1080 8595 c0 -18 -5 -25 -20 -25 -11 0 -20 -7 -20 -15 0 -8 9 -15
20 -15 18 0 20 -7 20 -78 0 -83 9 -102 47 -102 28 0 31 26 3 33 -18 5 -20 14
-20 76 0 64 2 71 20 71 11 0 20 7 20 15 0 8 -9 15 -20 15 -15 0 -20 7 -20 25
0 16 -6 25 -15 25 -9 0 -15 -9 -15 -25z"/>
<path d="M1200 8595 c0 -16 -6 -25 -15 -25 -8 0 -15 -7 -15 -15 0 -8 7 -15 15
-15 12 0 15 -15 15 -74 0 -54 4 -79 16 -90 20 -20 54 -21 54 -1 0 8 -7 15 -15
15 -12 0 -15 15 -15 75 0 60 3 75 15 75 8 0 15 7 15 15 0 8 -7 15 -15 15 -9 0
-15 9 -15 25 0 18 -5 25 -20 25 -15 0 -20 -7 -20 -25z"/>
<path d="M5240 8595 c0 -18 -5 -25 -20 -25 -11 0 -20 -7 -20 -15 0 -8 9 -15
20 -15 18 0 20 -7 20 -79 0 -82 11 -106 46 -99 26 5 29 28 5 28 -19 0 -21 6
-21 74 0 65 2 74 20 79 11 3 20 10 20 16 0 6 -9 11 -20 11 -15 0 -20 7 -20 25
0 16 -6 25 -15 25 -9 0 -15 -9 -15 -25z"/>
<path d="M7430 8595 c0 -18 -5 -25 -20 -25 -11 0 -20 -7 -20 -15 0 -8 9 -15
20 -15 18 0 20 -7 20 -78 0 -83 9 -102 47 -102 28 0 31 26 3 33 -18 5 -20 14
-20 76 0 64 2 71 20 71 11 0 20 7 20 15 0 8 -9 15 -20 15 -15 0 -20 7 -20 25
0 16 -6 25 -15 25 -9 0 -15 -9 -15 -25z"/>
<path d="M1320 8425 c0 -122 2 -145 15 -145 11 0 15 12 15 50 0 47 1 50 19 40
31 -16 58 -12 88 14 24 21 27 31 27 81 0 50 -3 60 -27 81 -30 26 -57 30 -88
14 -13 -7 -19 -7 -19 0 0 5 -7 10 -15 10 -13 0 -15 -23 -15 -145z m114 99 c18
-18 21 -85 6 -115 -12 -22 -59 -26 -78 -7 -7 7 -12 35 -12 63 0 28 5 56 12 63
17 17 54 15 72 -4z"/>
<path d="M1562 8558 c-27 -14 -39 -53 -22 -73 7 -8 30 -20 51 -27 45 -13 64
-31 55 -53 -8 -22 -63 -19 -83 5 -22 25 -33 25 -33 1 0 -42 81 -66 125 -37 37
24 35 71 -5 91 -16 8 -36 15 -44 15 -8 0 -22 7 -31 16 -12 12 -13 19 -4 30 15
18 53 18 69 -1 13 -16 40 -21 40 -7 0 37 -74 62 -118 40z"/>
<path d="M1735 8561 c-8 -15 3 -31 21 -31 9 0 14 7 12 17 -4 20 -24 28 -33 14z"/>
<path d="M2300 8560 c0 -34 56 -200 67 -200 7 0 22 31 35 75 12 41 25 72 29
67 4 -4 16 -36 27 -72 28 -94 42 -89 75 28 32 116 31 112 13 112 -10 0 -20
-25 -32 -75 -10 -41 -21 -72 -25 -68 -4 5 -16 37 -26 73 -26 89 -44 89 -68 -1
-11 -39 -22 -72 -26 -74 -3 -2 -13 29 -23 70 -12 50 -22 75 -32 75 -8 0 -14
-5 -14 -10z"/>
<path d="M2633 8555 c-53 -37 -47 -153 9 -184 22 -13 33 -13 58 -4 l30 11 0
-49 c0 -37 4 -49 15 -49 13 0 15 23 15 145 0 122 -2 145 -15 145 -8 0 -15 -5
-15 -10 0 -7 -6 -7 -19 0 -27 14 -53 13 -78 -5z m85 -27 c16 -16 16 -110 0
-126 -17 -17 -54 -15 -72 4 -10 9 -16 33 -16 59 0 26 6 50 16 59 18 19 55 21
72 4z"/>
<path d="M2820 8465 c0 -87 3 -105 15 -105 12 0 15 15 15 73 0 77 15 107 53
107 9 0 17 7 17 15 0 17 -23 20 -51 5 -13 -7 -19 -7 -19 0 0 5 -7 10 -15 10
-12 0 -15 -18 -15 -105z"/>
<path d="M3172 8554 c-17 -12 -22 -24 -20 -47 3 -28 8 -34 52 -48 53 -18 71
-36 54 -56 -16 -20 -66 -16 -80 7 -15 23 -38 27 -38 6 0 -21 48 -56 76 -56 96
0 111 98 18 116 -38 7 -59 27 -50 49 7 20 62 20 74 -1 5 -9 18 -14 28 -12 17
3 17 6 -8 31 -31 31 -72 35 -106 11z"/>
<path d="M3365 8545 c-21 -20 -25 -34 -25 -80 0 -46 4 -60 25 -80 26 -27 54
-31 86 -15 18 10 19 7 19 -40 0 -43 3 -50 20 -50 19 0 20 7 20 145 0 118 -3
145 -14 145 -8 0 -16 -5 -18 -11 -3 -9 -9 -9 -25 0 -34 17 -62 13 -88 -14z
m93 -17 c16 -16 16 -110 0 -126 -34 -34 -88 4 -88 63 0 59 54 97 88 63z"/>
<path d="M3585 8545 c-19 -18 -25 -35 -25 -69 0 -89 40 -132 101 -109 27 10
29 9 29 -11 0 -43 -47 -61 -90 -34 -10 7 -22 9 -26 5 -13 -13 20 -37 57 -43
29 -5 41 -1 65 19 29 25 29 27 32 146 3 102 1 121 -11 121 -9 0 -17 -5 -19
-11 -3 -9 -9 -9 -25 0 -34 17 -62 13 -88 -14z m93 -17 c16 -16 16 -110 0 -126
-34 -34 -88 4 -88 63 0 59 54 97 88 63z"/>
<path d="M3780 8465 c0 -87 3 -105 15 -105 12 0 15 15 15 73 0 77 15 107 53
107 9 0 17 7 17 15 0 17 -23 20 -51 5 -13 -7 -19 -7 -19 0 0 5 -7 10 -15 10
-12 0 -15 -18 -15 -105z"/>
<path d="M3929 8541 c-24 -24 -29 -38 -29 -76 0 -38 5 -52 29 -76 35 -34 77
-38 112 -10 28 22 20 38 -9 22 -46 -25 -82 -11 -96 37 -7 21 -5 22 63 22 65 0
71 2 71 20 0 81 -84 117 -141 61z m99 -28 c14 -23 14 -23 -42 -23 -58 0 -60 3
-33 38 15 19 58 10 75 -15z"/>
<path d="M4248 8554 c-61 -33 -58 -152 6 -182 32 -16 88 -9 106 14 17 20 4 31
-20 16 -42 -26 -100 -2 -100 41 0 14 11 17 65 17 l65 0 0 30 c0 37 -39 80 -72
80 -13 -1 -35 -7 -50 -16z m82 -33 c15 -30 14 -31 -40 -31 -52 0 -60 8 -34 34
21 22 61 20 74 -3z"/>
<path d="M4434 8519 l34 -51 -34 -54 c-31 -48 -33 -54 -15 -54 12 0 28 15 43
40 l24 41 23 -41 c14 -26 29 -40 42 -40 22 0 22 1 -22 66 l-28 41 35 51 c31
46 32 52 15 52 -11 0 -28 -14 -41 -35 -12 -19 -23 -35 -25 -35 -2 0 -13 16
-25 35 -13 21 -30 35 -41 35 -17 0 -16 -6 15 -51z"/>
<path d="M4629 8541 c-24 -25 -29 -37 -29 -78 1 -51 12 -73 47 -91 32 -17 68
-15 94 7 28 22 18 41 -11 23 -31 -19 -67 -14 -84 10 -29 41 -21 48 55 48 l71
0 -7 33 c-8 39 -47 77 -81 77 -15 0 -38 -12 -55 -29z m89 -13 c26 -26 13 -38
-38 -38 -54 0 -59 4 -33 32 18 21 53 24 71 6z"/>
<path d="M4829 8541 c-24 -24 -29 -38 -29 -76 0 -38 5 -52 29 -76 16 -16 39
-29 51 -29 40 0 90 36 90 66 0 12 -28 1 -43 -16 -37 -44 -97 -10 -97 55 0 65
60 99 97 55 24 -28 45 -26 34 3 -19 51 -89 61 -132 18z"/>
<path d="M5010 8485 c0 -72 3 -88 20 -105 23 -23 51 -25 83 -9 16 9 22 9 25 0
2 -6 10 -11 18 -11 11 0 14 21 14 105 0 98 -1 105 -20 105 -18 0 -20 -7 -20
-78 0 -82 -9 -102 -45 -102 -36 0 -45 20 -45 102 0 63 -3 78 -15 78 -12 0 -15
-16 -15 -85z"/>
<path d="M5369 8541 c-24 -24 -29 -38 -29 -76 0 -38 5 -52 29 -76 35 -34 77
-38 112 -10 28 22 20 38 -9 22 -46 -25 -82 -11 -96 37 -7 21 -5 22 63 22 65 0
71 2 71 20 0 81 -84 117 -141 61z m99 -28 c14 -23 14 -23 -42 -23 -58 0 -60 3
-33 38 15 19 58 10 75 -15z"/>
<path d="M5695 8558 c-34 -19 -47 -48 -21 -48 7 0 19 7 26 15 23 28 80 13 80
-22 0 -8 -12 -13 -29 -13 -46 0 -80 -17 -91 -46 -20 -52 41 -100 95 -76 15 7
26 8 30 2 4 -6 12 -10 18 -10 9 0 11 25 9 87 -3 74 -7 91 -24 106 -23 19 -63
22 -93 5z m85 -118 c0 -55 -82 -71 -88 -17 -4 29 19 45 66 46 18 1 22 -4 22
-29z"/>
<path d="M5870 8425 c0 -122 2 -145 15 -145 11 0 15 12 15 50 0 47 1 50 19 40
31 -16 58 -12 88 14 24 21 27 31 27 81 0 50 -3 60 -27 81 -30 26 -57 30 -88
14 -13 -7 -19 -7 -19 0 0 5 -7 10 -15 10 -13 0 -15 -23 -15 -145z m114 99 c18
-18 21 -85 6 -115 -12 -22 -59 -26 -78 -7 -7 7 -12 35 -12 63 0 28 5 56 12 63
17 17 54 15 72 -4z"/>
<path d="M6090 8465 c0 -87 3 -105 15 -105 12 0 15 18 15 105 0 87 -3 105 -15
105 -12 0 -15 -18 -15 -105z"/>
<path d="M6303 8546 c-25 -21 -28 -31 -28 -81 0 -50 3 -60 28 -81 37 -31 81
-31 112 1 14 13 25 29 25 35 0 17 -25 11 -38 -10 -15 -25 -64 -27 -83 -3 -8 9
-14 35 -14 58 0 23 6 49 14 58 19 24 68 22 81 -3 11 -21 40 -28 40 -10 0 6
-11 22 -25 35 -31 32 -75 32 -112 1z"/>
<path d="M6515 8558 c-34 -19 -47 -48 -21 -48 7 0 19 7 26 15 23 28 80 13 80
-22 0 -8 -12 -13 -29 -13 -46 0 -80 -17 -91 -46 -20 -52 41 -100 95 -76 15 7
26 8 30 2 4 -6 12 -10 18 -10 9 0 11 25 9 87 -3 74 -7 91 -24 106 -23 19 -63
22 -93 5z m85 -118 c0 -55 -82 -71 -88 -17 -4 29 19 45 66 46 18 1 22 -4 22
-29z"/>
<path d="M6819 8541 c-24 -24 -29 -38 -29 -76 0 -38 5 -52 29 -76 16 -16 39
-29 51 -29 40 0 90 36 90 66 0 12 -28 1 -43 -16 -37 -44 -97 -10 -97 55 0 65
60 99 97 55 24 -28 45 -26 34 3 -19 51 -89 61 -132 18z"/>
<path d="M7019 8541 c-24 -24 -29 -38 -29 -76 0 -38 5 -52 29 -76 35 -34 77
-38 112 -10 28 22 20 38 -9 22 -46 -25 -82 -11 -96 37 -7 21 -5 22 63 22 65 0
71 2 71 20 0 81 -84 117 -141 61z m99 -28 c14 -23 14 -23 -42 -23 -58 0 -60 3
-33 38 15 19 58 10 75 -15z"/>
<path d="M7200 8465 c0 -98 1 -105 20 -105 18 0 20 7 20 78 0 82 9 102 45 102
36 0 45 -20 45 -102 0 -63 3 -78 15 -78 12 0 15 16 15 85 0 72 -3 88 -20 105
-23 23 -51 25 -83 9 -16 -9 -22 -9 -25 0 -2 6 -10 11 -18 11 -11 0 -14 -21
-14 -105z"/>
<path d="M7540 8465 c0 -98 1 -105 20 -105 18 0 20 7 20 81 0 81 0 81 30 92
17 6 30 17 30 24 0 17 -32 17 -49 1 -11 -10 -14 -10 -18 0 -3 6 -11 12 -19 12
-11 0 -14 -21 -14 -105z"/>
<path d="M7692 8554 c-12 -8 -22 -22 -22 -30 0 -19 26 -18 34 1 9 25 65 19 75
-7 8 -21 5 -24 -36 -30 -77 -12 -107 -64 -63 -108 23 -23 51 -25 83 -9 16 9
22 9 25 0 2 -6 10 -11 18 -11 11 0 14 18 14 80 0 73 -3 83 -25 105 -28 29 -70
32 -103 9z m94 -99 c9 -23 -23 -65 -50 -65 -28 0 -51 24 -42 45 11 31 83 46
92 20z"/>
<path d="M5530 8475 c0 -11 12 -15 45 -15 33 0 45 4 45 15 0 11 -12 15 -45 15
-33 0 -45 -4 -45 -15z"/>
<path d="M6670 8475 c0 -11 12 -15 45 -15 33 0 45 4 45 15 0 11 -12 15 -45 15
-33 0 -45 -4 -45 -15z"/>
<path d="M7950 8475 c0 -11 12 -15 45 -15 33 0 45 4 45 15 0 11 -12 15 -45 15
-33 0 -45 -4 -45 -15z"/>
<path d="M1734 8389 c-8 -14 11 -33 25 -25 16 10 13 36 -3 36 -8 0 -18 -5 -22
-11z"/>
<path d="M4114 8389 c-8 -14 11 -33 25 -25 16 10 13 36 -3 36 -8 0 -18 -5 -22
-11z"/>
<path d="M6182 8383 c2 -10 10 -18 18 -18 22 0 18 29 -3 33 -14 3 -18 -1 -15
-15z"/>
<path d="M8294 8389 c-3 -6 -2 -15 4 -21 13 -13 32 -2 32 18 0 16 -26 19 -36
3z"/>
<path d="M8375 8390 c-8 -14 3 -30 21 -30 8 0 14 9 14 20 0 21 -24 28 -35 10z"/>
<path d="M8454 8389 c-3 -6 -2 -15 4 -21 13 -13 32 -2 32 18 0 16 -26 19 -36
3z"/>
<path d="M0 660 l0 -660 5400 0 5400 0 0 660 0 660 -5400 0 -5400 0 0 -660z
m2444 194 c8 -20 8 -378 0 -398 -3 -9 -13 -16 -21 -16 -8 0 -91 45 -184 101
-120 71 -169 105 -167 116 3 18 323 212 349 212 9 1 20 -6 23 -15z m6250 -10
c24 -23 24 -355 0 -378 -23 -24 -355 -24 -378 0 -13 13 -16 45 -16 189 0 144
3 176 16 189 23 24 355 24 378 0z m-3178 -30 c58 -47 76 -87 72 -166 -3 -57
-8 -73 -34 -104 -47 -58 -87 -76 -166 -72 -57 3 -73 8 -104 34 -58 47 -76 87
-72 166 3 57 8 73 34 104 47 58 87 76 166 72 57 -3 73 -8 104 -34z"/>
</g>
</svg>
